<?xml version="1.0" encoding="utf-8"?>
<!-- Generator: Adobe Illustrator 17.0.0, SVG Export Plug-In . SVG Version: 6.00 Build 0)  -->
<!DOCTYPE svg PUBLIC "-//W3C//DTD SVG 1.1//EN" "http://www.w3.org/Graphics/SVG/1.1/DTD/svg11.dtd">
<svg version="1.1" id="Layer_1" xmlns="http://www.w3.org/2000/svg" xmlns:xlink="http://www.w3.org/1999/xlink" x="0px" y="0px"
	 width="254px" height="20px" viewBox="0 0 254 20" enable-background="new 0 0 254 20" xml:space="preserve">
<g>
	<path fill="#010101" d="M54.771,5.081C53.807,3.755,52,3.153,50.554,3.153c-3.855,0-6.506,3.012-6.506,6.867
		c0,4.096,2.53,6.867,6.386,6.867c2.048,0,3.614-0.843,4.578-2.169l2.651,1.928c-1.687,2.048-4.096,3.253-7.229,3.253
		c-5.783,0-10-4.096-10-9.88c0-6.024,4.337-9.759,10.12-9.759c2.41,0,5.301,0.843,6.747,2.892L54.771,5.081z"/>
	<path fill="#010101" d="M64.651,3.635h-5.783V0.743h14.819v2.892h-5.783v15.783h-3.253V3.635z"/>
	<path fill="#010101" d="M89.229,5.081c-0.964-1.325-2.771-1.928-4.217-1.928c-3.855,0-6.506,3.012-6.506,6.867
		c0,4.096,2.53,6.867,6.386,6.867c2.048,0,3.614-0.843,4.578-2.169l2.651,1.928c-1.687,2.048-4.096,3.253-7.229,3.253
		c-5.783,0-10-4.096-10-9.88c0-6.024,4.337-9.759,10.12-9.759c2.41,0,5.301,0.843,6.747,2.892L89.229,5.081z"/>
	<path fill="#010101" d="M7.422,3.635H1.639V0.743h14.819v2.892h-5.783v15.783H7.422V3.635z"/>
	<path fill="#010101" d="M118.145,0.743h6.145c4.337,0,7.108,1.566,7.108,5.422c0,4.096-3.253,5.542-7.229,5.542h-2.53v7.711h-3.373
		V0.743H118.145z M123.807,8.936c2.169,0,4.096-0.482,4.096-2.771c0-2.169-1.928-2.651-4.096-2.651h-2.41v5.422H123.807z"/>
	<path fill="#010101" d="M138.627,3.635h-5.783V0.743h14.94v2.892H142v15.783h-3.373V3.635L138.627,3.635z"/>
	<path fill="#010101" d="M150.554,0.743h3.373v13.735h0.12l8.795-13.735h3.614v18.675h-3.374V5.804l0,0l-8.795,13.614h-3.614V0.743
		H150.554z"/>
	<path fill="#010101" d="M178.867,17.43c-4.94,0-8.675-3.133-8.675-7.831c0-5.06,3.494-7.711,8.675-7.831V0.081h3.494v1.687
		c5.181,0.12,8.675,2.771,8.675,7.831c0,4.699-3.735,7.831-8.675,7.831v2.289h-3.494V17.43z M178.867,4.659
		c-3.494,0.241-5.06,2.169-5.06,4.94c0,2.892,1.566,4.578,5.06,4.94V4.659z M187.422,9.599c0-2.771-1.566-4.699-5.06-4.94v9.88
		C185.735,14.177,187.422,12.49,187.422,9.599z"/>
	<path fill="#010101" d="M194.771,0.743h3.374v13.735h0.12l8.795-13.735h3.614v18.675h-3.373V5.804l0,0l-8.916,13.614h-3.614V0.743z
		"/>
	<path fill="#010101" d="M215.374,0.743h3.374v8.072h0.12l7.831-8.072h4.458l-8.795,8.675l9.277,10.12h-4.699l-8.193-9.398h-0.12
		v9.398h-3.373V0.743H215.374z"/>
	<path fill="#010101" d="M242.241,0.261c5.783,0,10.12,3.735,10.12,9.759c0,5.783-4.217,9.88-10.12,9.88c-5.783,0-10-4.096-10-9.88
		C232.241,3.996,236.458,0.261,242.241,0.261z M242.241,16.888c3.855,0,6.506-2.892,6.506-6.867c0-3.855-2.53-6.867-6.506-6.867
		c-3.855,0-6.386,3.012-6.386,6.867C235.855,13.996,238.506,16.888,242.241,16.888z"/>
	<g>
		<g>
			<path fill="#F06B4E" d="M21.398,13.033c-0.482-0.964-0.723-2.048-0.723-3.253c0-1.084,0.241-2.289,0.723-3.253c0,0,0,0,0-0.12
				c0-0.12,0.12-0.12,0.12-0.241c0.602-0.964,1.446-1.807,2.41-2.41c0.12,0,0.12-0.12,0.241-0.12l0,0
				c1.084-0.482,2.169-0.723,3.373-0.723c0.964,0,1.807,0.241,2.651,0.482c0.723,0.361,1.446,0.723,2.048,1.325l0.12,0.12
				c1.325,1.325,2.048,3.133,2.048,4.94h2.892c0-2.53-1.084-5.181-2.892-6.988c-1.084-0.964-2.289-1.807-3.735-2.289
				C29.711,0.141,28.627-0.1,27.542-0.1c-1.566,0-3.012,0.361-4.337,0.964c-0.12,0-0.241,0.12-0.361,0.12s-0.12,0.12-0.241,0.12
				c-0.723,0.602-1.446,1.084-2.048,1.807c-0.602,0.602-1.205,1.325-1.566,2.048c-0.12,0.12-0.12,0.12-0.12,0.241
				c0,0.12-0.12,0.241-0.12,0.361c-0.723,1.205-1.084,2.771-1.084,4.217c0,1.566,0.361,3.012,0.964,4.337
				c0,0.12,0.12,0.241,0.12,0.361s0.12,0.12,0.12,0.241c0.482,0.723,0.964,1.446,1.566,2.048c1.566,1.566,3.735,2.651,5.904,2.771
				c0,0,0,0,0.12,0c0.241,0,0.602,0,0.843,0l0,0l0,0c2.651,0,5.06-0.964,6.867-2.892l-2.048-2.048
				c-1.325,1.325-3.012,2.048-4.94,2.048c-0.241,0-0.482,0-0.602,0l0,0c-2.289-0.241-4.096-1.566-5.301-3.373
				C21.518,13.273,21.398,13.153,21.398,13.033L21.398,13.033z"/>
		</g>
		<path fill="#010101" d="M27.542,8.695L27.542,8.695c-0.723,0-1.205,0.482-1.205,1.084c0,0.602,0.482,1.205,1.205,1.205l0,0
			l9.759-0.843V9.9L27.542,8.695z"/>
	</g>
	<g>
		<g>
			<path fill="#F06B4E" d="M98.145,13.033c-0.482-0.964-0.723-2.048-0.723-3.253c0-1.084,0.241-2.289,0.723-3.253c0,0,0,0,0-0.12
				c0-0.12,0.12-0.12,0.12-0.241c0.602-0.964,1.446-1.807,2.41-2.41c0.12,0,0.12-0.12,0.241-0.12l0,0
				c1.205-0.482,2.289-0.723,3.373-0.723c0.964,0,1.807,0.241,2.651,0.482c0.723,0.361,1.446,0.723,2.048,1.325l0.12,0.12
				c1.325,1.325,2.048,3.133,2.048,4.94h2.892c0-2.53-1.084-5.181-2.892-6.988c-1.084-1.084-2.41-1.807-3.735-2.289
				c-0.964-0.361-2.048-0.602-3.133-0.602c-1.566,0-3.012,0.361-4.337,0.964c-0.12,0-0.241,0.12-0.361,0.12
				c-0.12,0-0.12,0.12-0.241,0.12c-0.602,0.602-1.325,1.084-2.048,1.807c-0.602,0.602-1.205,1.325-1.566,2.048
				c0,0.12-0.12,0.12-0.12,0.241c0,0.12-0.12,0.241-0.12,0.361C94.892,6.888,94.53,8.334,94.53,9.9c0,1.566,0.361,3.012,0.964,4.337
				c0,0.12,0.12,0.241,0.12,0.361s0.12,0.12,0.12,0.241c0.482,0.723,0.964,1.446,1.566,2.048c1.566,1.566,3.735,2.651,5.904,2.771
				c0,0,0,0,0.12,0c0.241,0,0.602,0,0.843,0l0,0l0,0c2.651,0,5.06-0.964,6.867-2.892l-1.807-2.048
				c-1.325,1.325-3.012,2.048-4.94,2.048c-0.241,0-0.482,0-0.602,0l0,0c-2.289-0.241-4.096-1.566-5.301-3.373
				C98.265,13.273,98.265,13.153,98.145,13.033L98.145,13.033z"/>
		</g>
		<path fill="#010101" d="M104.41,8.695C104.41,8.695,104.289,8.695,104.41,8.695c-0.723,0-1.205,0.482-1.205,1.084
			c0,0.602,0.482,1.205,1.205,1.205l0,0l9.759-0.843V9.9L104.41,8.695z"/>
	</g>
</g>
</svg>
