<?xml version="1.0" encoding="utf-8"?>
<!-- Generator: Adobe Illustrator 17.0.0, SVG Export Plug-In . SVG Version: 6.00 Build 0)  -->
<!DOCTYPE svg PUBLIC "-//W3C//DTD SVG 1.1//EN" "http://www.w3.org/Graphics/SVG/1.1/DTD/svg11.dtd">
<svg version="1.1" id="Layer_1" xmlns="http://www.w3.org/2000/svg" xmlns:xlink="http://www.w3.org/1999/xlink" x="0px" y="0px"
	 width="254px" height="20px" viewBox="0 0 254 20" enable-background="new 0 0 254 20" xml:space="preserve">
<g>
	<g>
		<g>
			<path fill="#F06B4E" d="M110.944,13.122c-0.477-0.955-0.716-2.029-0.716-3.222c0-1.074,0.239-2.268,0.716-3.222c0,0,0,0,0-0.119
				c0-0.119,0.119-0.119,0.119-0.239c0.597-0.955,1.432-1.79,2.387-2.387c0.119,0,0.119-0.119,0.239-0.119l0,0
				c1.074-0.477,2.268-0.716,3.342-0.716c0.955,0,1.79,0.239,2.626,0.477c0.716,0.358,1.432,0.716,2.029,1.313l0.119,0.119
				c1.313,1.313,2.029,3.103,2.029,4.893h2.864c0-2.506-1.074-5.132-2.864-6.922c-1.074-1.074-2.387-1.79-3.7-2.268
				c-0.955-0.358-2.029-0.597-3.103-0.597c-1.552,0-2.984,0.358-4.297,0.955c-0.119,0-0.239,0.119-0.358,0.119
				c-0.119,0-0.119,0.119-0.239,0.119c-0.597,0.597-1.313,1.074-2.029,1.79c-0.597,0.597-1.194,1.313-1.552,2.029
				c0,0.119-0.119,0.119-0.119,0.239s-0.119,0.239-0.119,0.358c-0.597,1.313-0.955,2.745-0.955,4.297
				c0,1.552,0.358,2.984,0.955,4.297c0,0.119,0.119,0.239,0.119,0.358c0,0.119,0.119,0.119,0.119,0.239
				c0.477,0.716,0.955,1.432,1.552,2.029c1.552,1.552,3.7,2.626,5.848,2.745c0,0,0,0,0.119,0c0.239,0,0.597,0,0.835,0l0,0l0,0
				c2.626,0,5.013-0.955,6.803-2.864l-1.79-2.029c-1.313,1.313-2.984,2.029-4.893,2.029c-0.239,0-0.477,0-0.597,0l0,0
				c-2.268-0.239-4.058-1.552-5.251-3.342C111.064,13.361,111.064,13.242,110.944,13.122L110.944,13.122z"/>
		</g>
		<path fill="#010101" d="M117.151,8.826C117.151,8.826,117.031,8.826,117.151,8.826c-0.716,0-1.194,0.477-1.194,1.074
			c0,0.597,0.477,1.194,1.194,1.194l0,0l9.667-0.835v-0.239L117.151,8.826z"/>
	</g>
	<g>
		<g>
			<path fill="#F06B4E" d="M42.198,13.122c-0.477-0.955-0.716-2.029-0.716-3.222c0-1.074,0.239-2.268,0.716-3.222c0,0,0,0,0-0.119
				c0-0.119,0.119-0.119,0.119-0.239c0.597-0.955,1.432-1.79,2.387-2.387c0.119,0,0.119-0.119,0.239-0.119l0,0
				c1.194-0.477,2.268-0.716,3.342-0.716c0.955,0,1.79,0.239,2.626,0.477c0.716,0.358,1.432,0.716,2.029,1.313l0.119,0.119
				c1.313,1.313,2.029,3.103,2.029,4.893h2.864c0-2.506-1.074-5.132-2.864-6.922c-1.074-1.074-2.387-1.79-3.7-2.268
				c-0.955-0.358-2.029-0.597-3.103-0.597c-1.552,0-2.984,0.358-4.297,0.955c-0.119,0-0.239,0.119-0.358,0.119
				s-0.119,0.119-0.239,0.119c-0.597,0.597-1.313,1.074-1.91,1.79c-0.597,0.597-1.194,1.313-1.552,2.029
				c0,0.119-0.119,0.119-0.119,0.239s-0.119,0.239-0.119,0.358c-0.597,1.313-0.955,2.745-0.955,4.297
				c0,1.552,0.358,2.984,0.955,4.297c0,0.119,0.119,0.239,0.119,0.358c0,0.119,0.119,0.119,0.119,0.239
				c0.477,0.716,0.955,1.432,1.552,2.029c1.552,1.552,3.7,2.626,5.848,2.745c0,0,0,0,0.119,0c0.239,0,0.597,0,0.835,0l0,0l0,0
				c2.626,0,5.013-0.955,6.803-2.864l-2.029-2.029c-1.313,1.313-2.984,2.029-4.893,2.029c-0.239,0-0.477,0-0.597,0l0,0
				c-2.268-0.239-4.058-1.552-5.251-3.342C42.318,13.361,42.318,13.242,42.198,13.122L42.198,13.122z"/>
		</g>
		<path fill="#010101" d="M48.404,8.826L48.404,8.826c-0.716,0-1.194,0.477-1.194,1.074c0,0.597,0.477,1.194,1.194,1.194l0,0
			l9.667-0.835v-0.239L48.404,8.826z"/>
	</g>
	<path fill="#010101" d="M28.354,3.574h-5.609V0.71h14.68v2.864h-5.729v15.635h-3.342V3.574z"/>
	<path fill="#010101" d="M71.201,4.529c-0.716-0.955-2.148-1.552-3.461-1.552c-1.552,0-3.222,0.716-3.222,2.506
		c0,1.671,1.432,2.148,3.581,2.864c2.387,0.716,5.371,1.79,5.371,5.371c0,3.939-3.103,5.968-6.803,5.968
		c-2.387,0-4.893-0.955-6.326-2.626l2.387-2.148c0.955,1.313,2.626,2.029,4.058,2.029c1.552,0,3.342-0.716,3.342-2.745
		c0-1.91-1.91-2.506-4.297-3.222c-2.148-0.716-4.655-1.91-4.655-5.371c0-3.819,3.461-5.49,6.803-5.49
		c1.91,0,3.939,0.597,5.371,2.029L71.201,4.529z"/>
	<path fill="#010101" d="M80.749,3.574H75.02V0.71H89.7v2.864h-5.729v15.635h-3.342V3.574H80.749z"/>
	<path fill="#010101" d="M101.993,4.529c-0.716-0.955-2.148-1.552-3.461-1.552c-1.552,0-3.222,0.716-3.222,2.506
		c0,1.671,1.432,2.148,3.581,2.864c2.387,0.716,5.371,1.79,5.371,5.371c0,3.939-3.103,5.968-6.803,5.968
		c-2.387,0-4.893-0.955-6.326-2.626l2.387-2.148c0.955,1.313,2.626,2.029,4.058,2.029c1.552,0,3.342-0.716,3.342-2.745
		c0-1.91-1.91-2.506-4.297-3.222c-2.148-0.716-4.655-1.91-4.655-5.371c0-3.819,3.461-5.49,6.803-5.49
		c1.91,0,3.939,0.597,5.371,2.029L101.993,4.529z"/>
	<path fill="#010101" d="M130.757,0.71h6.445c3.461,0,6.803,1.432,6.803,5.371c0,2.626-1.671,4.416-4.297,5.013l4.893,8.235h-3.939
		l-4.297-7.877h-2.387v7.877h-3.342V0.71H130.757z M136.724,8.706c1.91,0,3.939-0.477,3.939-2.745c0-2.029-2.029-2.506-3.7-2.506
		h-2.984v5.251H136.724z"/>
	<path fill="#010101" d="M151.285,3.574h-5.729V0.71h14.68v2.864h-5.729v15.635h-3.342V3.574H151.285z"/>
	<path fill="#010101" d="M163.101,0.71h3.342v18.499h-3.342V0.71z"/>
	<path fill="#010101" d="M171.217,0.71h11.935v2.864h-8.713v5.132h8.116v2.745h-8.116v7.758h-3.342V0.71H171.217z"/>
	<path fill="#010101" d="M186.852,0.71h3.342v18.499h-3.342V0.71z"/>
	<path fill="#010101" d="M208.216,5.007c-0.955-1.313-2.745-1.91-4.177-1.91c-3.819,0-6.445,2.984-6.445,6.803
		c0,4.058,2.506,6.803,6.326,6.803c2.029,0,3.581-0.835,4.535-2.148l2.626,1.91c-1.671,2.029-4.058,3.222-7.161,3.222
		c-5.729,0-9.906-4.058-9.906-9.787c0-5.968,4.297-9.667,10.025-9.667c2.387,0,5.251,0.835,6.684,2.864L208.216,5.007z"/>
	<path fill="#010101" d="M222.418,0.233c5.729,0,10.025,3.7,10.025,9.667c0,5.729-4.177,9.787-10.025,9.787
		c-5.729,0-9.906-4.058-9.906-9.787C212.512,3.932,216.809,0.233,222.418,0.233z M222.538,16.703c3.819,0,6.445-2.864,6.445-6.803
		c0-3.819-2.506-6.803-6.445-6.803c-3.819,0-6.326,2.984-6.326,6.803C216.093,13.839,218.718,16.703,222.538,16.703z"/>
</g>
</svg>
