<?xml version="1.0" standalone="no"?>
<!DOCTYPE svg PUBLIC "-//W3C//DTD SVG 20010904//EN"
 "http://www.w3.org/TR/2001/REC-SVG-20010904/DTD/svg10.dtd">
<svg version="1.0" xmlns="http://www.w3.org/2000/svg"
 width="260.000000pt" height="260.000000pt" viewBox="0 0 260.000000 260.000000"
 preserveAspectRatio="xMidYMid meet">
<metadata>
Created by potrace 1.11, written by Peter Selinger 2001-2013
</metadata>
<g transform="translate(0.000000,260.000000) scale(0.100000,-0.100000)"
fill="#000000" stroke="none">
<path d="M1196 1993 c-3 -4 -18 -8 -34 -10 -15 -2 -35 -4 -44 -5 -10 -1 -18
-7 -18 -12 0 -5 -3 -6 -7 -3 -3 4 -15 -1 -26 -10 -11 -10 -17 -12 -13 -5 4 6
3 12 -2 12 -6 0 -13 -7 -16 -16 -4 -9 -9 -14 -13 -11 -3 4 -12 2 -20 -4 -7 -6
-13 -8 -13 -5 0 4 -7 0 -16 -8 -8 -9 -20 -13 -26 -10 -7 4 -8 2 -4 -4 4 -7 1
-12 -7 -12 -8 0 -17 -7 -21 -15 -3 -8 -15 -15 -26 -15 -12 0 -19 -3 -17 -7 3
-5 -1 -14 -9 -21 -8 -7 -14 -10 -14 -6 0 4 -14 -8 -30 -27 -17 -19 -41 -45
-54 -59 -13 -14 -26 -35 -30 -48 -4 -12 -11 -22 -16 -22 -4 0 -11 -11 -14 -25
-4 -14 -11 -25 -17 -25 -6 0 -8 -4 -4 -9 3 -5 -1 -16 -9 -24 -8 -8 -12 -17 -9
-21 3 -3 1 -12 -5 -19 -7 -8 -9 -17 -5 -20 3 -4 1 -7 -6 -7 -7 0 -10 -4 -7 -9
4 -5 0 -12 -6 -14 -10 -4 -10 -6 0 -6 9 -1 9 -8 -4 -32 -8 -17 -12 -29 -7 -26
5 3 9 -3 9 -13 0 -10 -5 -16 -11 -13 -7 2 -12 -3 -12 -12 0 -8 4 -15 9 -15 5
0 4 -10 -3 -21 -8 -16 -8 -23 1 -29 9 -6 9 -9 -1 -13 -12 -5 -12 -6 0 -6 11
-1 11 -4 0 -17 -10 -13 -10 -17 2 -25 12 -7 12 -9 -1 -9 -12 0 -12 -2 -2 -9
16 -9 15 -20 -1 -40 -9 -11 -9 -13 -1 -8 7 4 15 0 18 -9 3 -8 2 -12 -4 -9 -6
3 -10 1 -10 -4 0 -6 4 -11 9 -11 6 0 8 -9 6 -20 -2 -11 0 -20 6 -20 5 0 9 -13
9 -30 0 -16 5 -30 10 -30 6 0 10 -9 10 -20 0 -11 4 -20 8 -20 4 0 9 -10 9 -22
1 -13 9 -27 17 -33 8 -6 16 -18 18 -25 4 -16 15 -33 44 -65 12 -13 19 -26 17
-29 -3 -3 2 -8 11 -12 9 -3 16 -13 16 -21 0 -8 4 -12 9 -9 5 3 17 -6 27 -19
10 -14 23 -25 29 -25 6 0 17 -9 25 -19 7 -11 17 -18 22 -15 4 3 8 0 8 -6 0 -6
5 -8 10 -5 6 3 10 2 10 -3 0 -9 50 -37 63 -34 4 1 7 -3 7 -9 0 -6 6 -9 12 -7
7 3 19 -1 26 -8 7 -7 22 -11 33 -9 15 3 19 0 15 -11 -4 -11 -2 -12 13 -4 12 6
21 6 23 0 2 -5 18 -10 36 -12 19 -1 36 -6 39 -11 2 -4 11 -3 19 4 8 6 14 7 14
3 0 -5 13 -10 30 -10 18 -1 27 2 23 9 -4 6 -1 7 8 1 20 -12 61 -12 77 0 9 7
16 5 23 -5 6 -10 9 -10 9 -1 0 6 9 12 19 12 11 0 23 5 26 10 5 8 11 7 21 -1
11 -9 14 -9 14 0 0 7 5 9 10 6 6 -3 10 -1 10 5 0 6 4 9 8 6 4 -2 28 5 52 16
25 12 48 20 53 20 4 -1 7 3 7 9 0 6 7 9 15 5 8 -3 18 0 22 7 12 18 90 77 102
77 6 0 10 8 8 19 -3 21 -51 81 -65 81 -5 0 -15 11 -22 25 -7 14 -17 25 -21 25
-4 0 -15 7 -23 16 -15 14 -16 14 -16 -2 0 -10 -3 -14 -6 -11 -4 4 -14 -2 -23
-12 -9 -10 -26 -21 -39 -25 -12 -4 -20 -12 -17 -17 4 -5 1 -10 -4 -10 -12 -2
-26 -5 -38 -9 -5 -1 -12 -2 -16 -1 -4 1 -10 -6 -13 -14 -3 -8 -10 -12 -15 -9
-5 2 -18 0 -29 -6 -15 -8 -20 -8 -20 2 0 10 -2 10 -9 -1 -6 -10 -34 -15 -90
-16 -45 -2 -78 1 -75 6 3 5 -2 6 -11 3 -8 -4 -22 -1 -30 6 -12 10 -15 10 -15
-1 0 -10 -3 -10 -12 -1 -7 7 -20 12 -30 12 -10 0 -18 5 -18 11 0 5 -4 8 -9 4
-5 -3 -16 1 -24 9 -8 8 -17 13 -19 10 -3 -2 -11 2 -18 11 -7 8 -18 15 -25 15
-7 0 -16 7 -19 16 -4 9 -9 14 -12 11 -3 -3 -22 13 -42 36 -20 23 -40 43 -44
45 -5 2 -8 10 -8 18 0 8 -4 14 -10 14 -5 0 -10 9 -10 20 0 11 -4 20 -8 20 -10
0 -37 70 -34 87 2 6 -2 14 -8 18 -14 9 -12 27 3 20 6 -4 3 1 -7 9 -15 12 -16
16 -5 16 8 0 10 3 4 8 -13 9 -13 132 -1 132 5 0 6 3 3 6 -3 4 -2 16 4 27 8 14
8 18 0 13 -7 -5 -9 -1 -5 8 3 9 10 16 15 16 4 0 6 7 3 15 -4 8 -1 15 5 15 6 0
8 7 5 15 -4 8 -1 15 6 15 6 0 9 4 5 9 -3 5 2 16 10 24 8 9 15 20 15 26 0 6 5
11 12 11 6 0 9 3 5 6 -3 4 9 22 28 40 19 19 35 38 35 44 0 6 4 9 8 6 5 -3 14
4 22 14 8 10 17 17 21 14 4 -2 14 4 21 14 7 11 21 18 31 16 9 -1 15 2 12 6 -3
5 10 12 30 16 19 3 32 10 29 16 -4 5 11 8 35 5 22 -2 38 0 35 5 -6 9 -4 9 69
11 28 1 55 -2 59 -8 5 -6 8 -5 8 4 0 11 3 11 16 0 19 -16 47 -21 38 -7 -4 6 3
5 15 -1 12 -7 26 -9 31 -6 6 3 10 0 10 -7 0 -7 12 -14 26 -15 15 0 29 -5 33
-10 3 -4 19 -15 36 -23 38 -19 155 -137 152 -153 -1 -7 4 -11 11 -9 6 1 11 -1
10 -5 -1 -9 9 -40 23 -65 5 -10 9 -27 9 -38 0 -11 4 -20 9 -20 4 0 7 -12 7
-27 -1 -16 2 -36 6 -45 10 -20 -9 -35 -24 -20 -8 8 -17 8 -30 1 -10 -5 -18 -6
-18 -2 0 8 -25 11 -102 13 -21 1 -38 5 -38 8 0 4 -9 8 -20 8 -11 0 -20 -5 -20
-11 0 -5 -5 -3 -10 5 -5 8 -10 11 -10 7 0 -4 -9 -3 -20 3 -15 8 -20 8 -20 -1
0 -8 -7 -6 -18 4 -14 13 -21 14 -31 4 -9 -9 -14 -9 -20 1 -11 19 -15 19 -36 2
-11 -8 -16 -10 -12 -4 4 7 0 14 -7 17 -8 3 -17 1 -20 -6 -3 -9 -5 -9 -5 0 -1
8 -10 9 -30 3 -16 -4 -31 -7 -33 -7 -2 1 -2 0 -1 -2 2 -2 -6 -11 -17 -18 -11
-8 -18 -19 -15 -24 4 -5 3 -9 -2 -9 -4 0 -8 -13 -8 -29 0 -16 4 -27 9 -23 5 3
6 -2 3 -12 -4 -10 -3 -15 3 -11 6 3 13 0 16 -8 7 -19 30 -21 142 -15 34 1 62
7 62 13 0 5 5 3 10 -5 8 -12 10 -12 10 -1 0 10 3 11 14 2 10 -8 16 -9 21 -1 4
6 12 10 18 9 7 -1 36 -1 65 0 40 1 51 4 46 14 -6 9 -5 9 7 0 12 -10 18 -10 29
0 10 10 11 9 5 -3 -8 -13 -7 -13 8 -1 12 9 17 10 17 2 0 -7 5 -9 13 -4 6 4 23
9 37 9 104 6 127 8 139 18 12 9 13 8 6 -4 -7 -12 -6 -13 6 -3 12 10 18 10 27
1 8 -8 12 -9 12 -1 0 6 12 10 26 8 l25 -2 -4 89 c-3 62 -8 93 -18 99 -12 7
-12 9 1 9 12 0 13 2 1 9 -7 5 -13 20 -13 35 0 15 -5 23 -11 19 -6 -4 -8 0 -4
11 4 10 1 19 -8 22 -8 4 -12 10 -9 16 3 5 -6 27 -20 49 -15 21 -24 39 -22 39
3 0 -6 12 -19 26 -14 15 -25 33 -25 40 0 7 -9 16 -21 19 -11 4 -18 9 -15 12 7
7 -19 33 -33 33 -6 0 -11 6 -11 14 0 8 -9 18 -20 21 -11 3 -20 11 -20 16 0 5
-7 9 -15 9 -8 0 -15 5 -15 10 0 6 -7 10 -15 10 -8 0 -15 5 -15 10 0 6 -9 10
-19 10 -11 0 -21 4 -23 8 -1 4 -22 17 -45 29 -23 11 -39 15 -36 9 4 -6 -1 -5
-10 3 -9 7 -17 10 -17 5 0 -5 -5 -1 -11 9 -8 13 -14 15 -30 7 -11 -6 -19 -7
-19 -1 0 5 -7 12 -16 15 -10 4 -13 2 -8 -7 6 -9 5 -9 -7 0 -15 12 -222 17
-233 6z"/>
</g>
</svg>
